<svg width="100" height="71" viewBox="0 0 100 71" fill="none" xmlns="http://www.w3.org/2000/svg">
<path fill-rule="evenodd" clip-rule="evenodd" d="M29 46V69H33H37V46V23H33H29V46ZM29 56.5V69H29.5H30.5C33 69 30.5 69 29 69C29 68.5 29 62 29 56V45.5V56.5Z" fill="#1E99DC"/>
<path fill-rule="evenodd" clip-rule="evenodd" d="M70.579 17.75C62.935 26.413 56.302 33.65 55.84 33.833C55.378 34.017 55 27.154 55 18.583V3H50H45V36V69H50H55V59.426V49.851L59.776 44.845L64.552 39.838L74.942 54.419L85.333 69H92.155H98.976L87.707 53.25C81.509 44.588 75.487 36.148 74.326 34.496L72.215 31.493L78.857 23.895C82.511 19.717 88.359 13.081 91.853 9.149L98.206 2H91.342H84.477L70.579 17.75Z" fill="#FEFFFF"/>
<path fill-rule="evenodd" clip-rule="evenodd" d="M16 57.5V69H19.5H23V57.5V46H19.5H16V57.5Z" fill="#2DD2A8"/>
<path fill-rule="evenodd" clip-rule="evenodd" d="M3 37C3 37.5 3 45.233 3 53.667V69H7H11V53V37H7.667C5.833 37 3.5 37 3 37Z" fill="#F0DE00"/>
</svg>
